<svg xmlns="http://www.w3.org/2000/svg" viewBox="0 0 64 64" fill="none" stroke-width="2" stroke-linecap="round" stroke-linejoin="round">
  <defs>
    <linearGradient id="zip-g" x1="0%" y1="0%" x2="100%" y2="100%">
      <stop offset="0%" stop-color="#00ff88"/>
      <stop offset="100%" stop-color="#00d4ff"/>
    </linearGradient>
  </defs>
  <path d="M12 4h28l12 12v44a4 4 0 0 1-4 4H12a4 4 0 0 1-4-4V8a4 4 0 0 1 4-4z" stroke="url(#zip-g)" fill="none"/>
  <path d="M40 4v12h12" stroke="url(#zip-g)"/>
  <rect x="26" y="8" width="8" height="4" stroke="#00ff88" fill="none"/>
  <rect x="26" y="16" width="8" height="4" stroke="#00d4ff" fill="none"/>
  <rect x="26" y="24" width="8" height="4" stroke="#00ff88" fill="none"/>
  <rect x="26" y="32" width="8" height="4" stroke="#00d4ff" fill="none"/>
  <rect x="24" y="40" width="12" height="14" rx="2" stroke="#ff00ff" fill="none"/>
  <circle cx="30" cy="44" r="2" stroke="#ff00ff" fill="none"/>
</svg>
