<svg xmlns="http://www.w3.org/2000/svg" viewBox="0 0 64 64" fill="none" stroke-width="2" stroke-linecap="round" stroke-linejoin="round">
  <defs>
    <linearGradient id="js-g" x1="0%" y1="0%" x2="100%" y2="100%">
      <stop offset="0%" stop-color="#00ff88"/>
      <stop offset="100%" stop-color="#00d4ff"/>
    </linearGradient>
  </defs>
  <path d="M12 4h28l12 12v44a4 4 0 0 1-4 4H12a4 4 0 0 1-4-4V8a4 4 0 0 1 4-4z" stroke="url(#js-g)" fill="none"/>
  <path d="M40 4v12h12" stroke="url(#js-g)"/>
  <path d="M22 28v12a4 4 0 0 1-4 4" stroke="#00ff88"/>
  <path d="M30 28c4 0 6 2 6 4s-2 4-6 4 6 2 6 4-2 4-6 4" stroke="#00d4ff"/>
  <text x="16" y="54" font-family="monospace" font-size="8" fill="#00ff88">JS</text>
</svg>
