<?xml version="1.0" encoding="UTF-8"?>
<svg width="256" height="256" viewBox="0 0 256 256" fill="none" xmlns="http://www.w3.org/2000/svg">
  <defs>
    <linearGradient id="swiftGradient" x1="0%" y1="0%" x2="100%" y2="100%">
      <stop offset="0%" style="stop-color:#FA7343"/>
      <stop offset="100%" style="stop-color:#F05138"/>
    </linearGradient>
  </defs>

  <!-- Background circle -->
  <rect width="256" height="256" rx="50" fill="url(#swiftGradient)"/>

  <!-- Swift bird logo -->
  <path d="M195.89 73.09c1.72 5.14 2.64 10.63 2.64 16.36 0 35.89-29.11 65-65 65-4.22 0-8.35-.4-12.35-1.17-15.14 19.08-37.93 31.36-63.53 31.36-8.62 0-16.93-1.35-24.71-3.85 14.64 18.92 37.73 31.15 63.71 31.15 44.39 0 80.35-35.96 80.35-80.35 0-22.47-9.24-42.79-24.11-57.5z" fill="white"/>

  <path d="M175.23 58.14c-35.45-28.82-82.14-35.61-82.14-35.61s56.03 42.36 71.85 65.85c15.82 23.49-7.27 54.45-7.27 54.45s55.27-30.36 55.27-68.71c0-11.27-5.61-24.82-37.71-15.98z" fill="white"/>

  <path d="M93.09 22.53s11.73 8.36 32.36 27.55c20.64 19.18 50 57.45 50 57.45s-32.73-12.73-70.36-49.27c-37.64-36.55-12-35.73-12-35.73z" fill="white"/>

  <path d="M41.91 96.14c0 0 43.27 48.45 99.09 67.63-23.64 14.55-53.27 12-77.45-6.73-24.18-18.73-36-45.27-21.64-60.9z" fill="white"/>
</svg>
