<svg xmlns="http://www.w3.org/2000/svg" viewBox="0 0 48 48" width="48" height="48">
  <defs>
    <linearGradient id="gearGrad" x1="0%" y1="0%" x2="100%" y2="100%">
      <stop offset="0%" style="stop-color:#6366f1"/>
      <stop offset="100%" style="stop-color:#8b5cf6"/>
    </linearGradient>
  </defs>
  <path d="M24 4 L27 4 L28.5 8.5 L32 9.5 L35.5 6.5 L38 8 L41.5 11.5 L40 14 L41.5 17.5 L46 19 L46 22 L46 25 L46 28 L41.5 29.5 L40 33 L42 36.5 L40 39 L36.5 41.5 L33 40 L29.5 41.5 L28 46 L25 46 L22 46 L19 46 L17.5 41.5 L14 40 L10.5 42 L8 40 L5.5 36.5 L7 33 L5.5 29.5 L2 28 L2 25 L2 22 L2 19 L5.5 17.5 L7 14 L5 10.5 L7 8 L10.5 5.5 L14 7 L17.5 5.5 L19 2 L22 2 L24 2 Z" fill="url(#gearGrad)"/>
  <circle cx="24" cy="24" r="8" fill="#fff"/>
  <circle cx="24" cy="24" r="5" fill="url(#gearGrad)"/>
</svg>
