<svg xmlns="http://www.w3.org/2000/svg" viewBox="0 0 48 48" width="48" height="48">
  <defs>
    <linearGradient id="storeGrad" x1="0%" y1="0%" x2="100%" y2="100%">
      <stop offset="0%" style="stop-color:#6366f1"/>
      <stop offset="100%" style="stop-color:#8b5cf6"/>
    </linearGradient>
  </defs>
  <path d="M12 8 L36 8 L42 18 L42 20 L6 20 L6 18 Z" fill="url(#storeGrad)"/>
  <path d="M8 20 L8 40 Q8 42 10 42 L38 42 Q40 42 40 40 L40 20 Z" fill="url(#storeGrad)"/>
  <rect x="12" y="24" width="8" height="8" rx="1" fill="#fff"/>
  <rect x="24" y="24" width="8" height="8" rx="1" fill="#fff"/>
  <rect x="12" y="34" width="8" height="6" rx="1" fill="#fff" opacity="0.7"/>
  <rect x="24" y="34" width="8" height="6" rx="1" fill="#fff" opacity="0.7"/>
  <path d="M18 8 L18 4 Q18 2 20 2 L28 2 Q30 2 30 4 L30 8" fill="none" stroke="url(#storeGrad)" stroke-width="2.5"/>
</svg>
